<svg width="32" height="33" viewBox="0 0 32 33" fill="none" xmlns="http://www.w3.org/2000/svg">
<path fill-rule="evenodd" clip-rule="evenodd" d="M14.04 24.7311C13.8525 24.9184 13.5983 25.0236 13.3333 25.0236C13.0683 25.0236 12.8141 24.9184 12.6266 24.7311L4.62663 16.7311C4.43936 16.5436 4.33417 16.2894 4.33417 16.0244C4.33417 15.7594 4.43936 15.5053 4.62663 15.3178L12.6266 7.31777C12.7182 7.21952 12.8286 7.14072 12.9512 7.08606C13.0739 7.03141 13.2063 7.00202 13.3406 6.99965C13.4749 6.99728 13.6082 7.02198 13.7328 7.07227C13.8573 7.12257 13.9704 7.19743 14.0653 7.29239C14.1603 7.38735 14.2352 7.50046 14.2855 7.62498C14.3358 7.74949 14.3605 7.88286 14.3581 8.01713C14.3557 8.1514 14.3263 8.28382 14.2717 8.40649C14.217 8.52916 14.1382 8.63956 14.04 8.73111L7.74663 15.0244L26.6666 15.0244C26.9318 15.0244 27.1862 15.1298 27.3737 15.3173C27.5613 15.5049 27.6666 15.7592 27.6666 16.0244C27.6666 16.2897 27.5613 16.544 27.3737 16.7315C27.1862 16.9191 26.9318 17.0244 26.6666 17.0244L7.74663 17.0244L14.04 23.3178C14.2272 23.5053 14.3324 23.7594 14.3324 24.0244C14.3324 24.2894 14.2272 24.5436 14.04 24.7311Z" fill="#320C97"/>
</svg>
