<svg width="32" height="33" viewBox="0 0 32 33" fill="none" xmlns="http://www.w3.org/2000/svg">
<path fill-rule="evenodd" clip-rule="evenodd" d="M17.96 7.31772C18.1475 7.13045 18.4017 7.02527 18.6667 7.02527C18.9317 7.02527 19.1859 7.13045 19.3734 7.31772L27.3734 15.3177C27.5606 15.5052 27.6658 15.7594 27.6658 16.0244C27.6658 16.2894 27.5606 16.5436 27.3734 16.7311L19.3734 24.7311C19.2818 24.8293 19.1714 24.9081 19.0488 24.9628C18.9261 25.0174 18.7937 25.0468 18.6594 25.0492C18.5251 25.0515 18.3918 25.0268 18.2672 24.9766C18.1427 24.9263 18.0296 24.8514 17.9347 24.7564C17.8397 24.6615 17.7648 24.5484 17.7145 24.4239C17.6642 24.2993 17.6395 24.166 17.6419 24.0317C17.6443 23.8974 17.6737 23.765 17.7283 23.6423C17.783 23.5197 17.8618 23.4093 17.96 23.3177L24.2534 17.0244H5.33337C5.06816 17.0244 4.8138 16.919 4.62627 16.7315C4.43873 16.544 4.33337 16.2896 4.33337 16.0244C4.33337 15.7592 4.43873 15.5048 4.62627 15.3173C4.8138 15.1297 5.06816 15.0244 5.33337 15.0244H24.2534L17.96 8.73106C17.7728 8.54356 17.6676 8.28939 17.6676 8.02439C17.6676 7.75939 17.7728 7.50522 17.96 7.31772Z" fill="#320C97"/>
</svg>
