<svg width="15" height="14" viewBox="0 0 15 14" fill="none" xmlns="http://www.w3.org/2000/svg">
<path d="M8 3.39062C9.96875 3.39062 11.5938 5.01562 11.5938 6.98438C11.5938 8.98438 9.96875 10.5781 8 10.5781C6 10.5781 4.40625 8.98438 4.40625 6.98438C4.40625 5.01562 6 3.39062 8 3.39062ZM8 9.32812C9.28125 9.32812 10.3125 8.29688 10.3125 6.98438C10.3125 5.70312 9.28125 4.67188 8 4.67188C6.6875 4.67188 5.65625 5.70312 5.65625 6.98438C5.65625 8.29688 6.71875 9.32812 8 9.32812ZM12.5625 3.26562C12.5625 2.79688 12.1875 2.42188 11.7188 2.42188C11.25 2.42188 10.875 2.79688 10.875 3.26562C10.875 3.73438 11.25 4.10938 11.7188 4.10938C12.1875 4.10938 12.5625 3.73438 12.5625 3.26562ZM14.9375 4.10938C15 5.26562 15 8.73438 14.9375 9.89062C14.875 11.0156 14.625 11.9844 13.8125 12.8281C13 13.6406 12 13.8906 10.875 13.9531C9.71875 14.0156 6.25 14.0156 5.09375 13.9531C3.96875 13.8906 3 13.6406 2.15625 12.8281C1.34375 11.9844 1.09375 11.0156 1.03125 9.89062C0.96875 8.73438 0.96875 5.26562 1.03125 4.10938C1.09375 2.98438 1.34375 1.98438 2.15625 1.17188C3 0.359375 3.96875 0.109375 5.09375 0.046875C6.25 -0.015625 9.71875 -0.015625 10.875 0.046875C12 0.109375 13 0.359375 13.8125 1.17188C14.625 1.98438 14.875 2.98438 14.9375 4.10938ZM13.4375 11.1094C13.8125 10.2031 13.7188 8.01562 13.7188 6.98438C13.7188 5.98438 13.8125 3.79688 13.4375 2.85938C13.1875 2.26562 12.7188 1.76562 12.125 1.54688C11.1875 1.17188 9 1.26562 8 1.26562C6.96875 1.26562 4.78125 1.17188 3.875 1.54688C3.25 1.79688 2.78125 2.26562 2.53125 2.85938C2.15625 3.79688 2.25 5.98438 2.25 6.98438C2.25 8.01562 2.15625 10.2031 2.53125 11.1094C2.78125 11.7344 3.25 12.2031 3.875 12.4531C4.78125 12.8281 6.96875 12.7344 8 12.7344C9 12.7344 11.1875 12.8281 12.125 12.4531C12.7188 12.2031 13.2188 11.7344 13.4375 11.1094Z" fill="black"/>
</svg>
