<svg width="323" height="64" viewBox="0 0 323 64" fill="none" xmlns="http://www.w3.org/2000/svg">
<g clip-path="url(#clip0_175_970)">
<path d="M107.44 49.3317C106.558 49.3317 105.881 48.6548 105.881 47.7727C105.881 46.8905 106.558 46.193 107.44 46.193C108.302 46.193 109.02 46.8905 109.02 47.7727C109.02 48.6343 108.302 49.3317 107.44 49.3317ZM111.235 49.3317C110.353 49.3317 109.676 48.6548 109.676 47.7727C109.676 46.8905 110.271 46.193 111.235 46.193C112.117 46.193 112.835 46.8905 112.835 47.7727C112.835 48.6343 112.117 49.3317 111.235 49.3317ZM115.276 50.1113H118.395V58.9325H106.148C101.634 58.9325 100.014 56.9016 100.014 54.2347C100.014 53.4551 100.116 52.5115 100.239 51.8345L102.947 52.1422C102.906 52.5115 102.865 52.9628 102.865 53.4551C102.865 55.2809 103.932 56.2451 107.645 56.2451H115.276V50.1113ZM124.877 58.9325C122.189 58.9325 121.369 57.6811 121.369 55.8348V43.4236H124.507V55.0142C124.507 55.8963 124.877 56.2451 125.718 56.2451H126.6C127.051 56.2451 127.379 56.4708 127.379 57.1067V57.9683C127.379 58.7479 126.969 58.9325 126.6 58.9325H124.877ZM133.558 49.9061C136.389 49.9061 138.215 51.9576 138.215 54.6039C138.215 57.0246 136.882 59.0351 133.456 59.0351C132.04 59.0351 130.83 58.6863 129.784 58.0709C129.045 58.7273 128.286 58.9325 126.953 58.9325H126.563V56.2451H126.871C127.773 56.2451 127.999 55.8348 128.43 54.5014C129.353 51.6704 131.138 49.9061 133.558 49.9061ZM133.415 56.3066C134.44 56.3066 135.138 55.9579 135.138 54.686C135.138 53.5167 134.502 52.614 133.456 52.614C132.286 52.614 131.507 53.7423 130.912 55.5886C131.527 55.9374 132.43 56.3066 133.415 56.3066ZM142.338 63.5277L141.989 60.9429C145.907 60.7377 146.708 60.0403 147.179 58.9325H146.256C142.338 58.9325 140.615 57.0246 140.615 54.6039C140.615 51.9166 142.523 49.5984 145.538 49.5984C147.569 49.5984 150.38 50.5831 150.38 55.1578V56.2451H152.082C152.575 56.2451 152.862 56.3887 152.862 56.8605V58.2555C152.862 58.8504 152.472 58.9325 152.082 58.9325H150.154C149.251 62.2763 146.769 63.4867 142.338 63.5277ZM146.297 56.2451H147.261V55.1989C147.261 53.0859 146.564 52.2858 145.415 52.2858C144.41 52.2858 143.733 53.1679 143.733 54.3373C143.733 55.6091 144.718 56.2451 146.297 56.2451ZM159.615 56.2451C160.046 56.2451 160.436 56.4708 160.436 57.1067V57.9683C160.436 58.8094 159.903 58.9325 159.615 58.9325C158.692 58.9325 157.687 58.7479 156.784 58.0298C156.333 58.5837 155.615 58.9325 154.507 58.9325H152.046V56.2451H153.235C154.097 56.2451 154.425 55.8553 154.425 54.9117V43.4236H157.564V55.0142C157.564 55.2809 157.564 55.5271 157.543 55.7733C158.405 56.163 159.041 56.2451 159.615 56.2451ZM172.194 56.2451C172.665 56.2451 173.035 56.4708 173.035 57.1067V57.9683C173.035 58.8094 172.522 58.9325 172.194 58.9325H169.958C168.563 58.9325 167.086 58.6863 166.06 58.276C164.193 58.7889 162.737 58.9325 160.706 58.9325H159.618V56.2451H161.465C162.285 56.2451 162.88 56.2041 163.413 56.122C162.388 55.0963 161.198 53.7013 160.911 53.2295C161.054 52.573 161.67 51.0755 161.977 50.5011C162.86 50.0908 164.767 49.5984 166.614 49.5984C169.301 49.5984 170.799 50.5421 170.799 52.1627C170.799 53.25 170.265 54.7681 168.85 56.163C169.383 56.2246 169.958 56.2451 170.491 56.2451H172.194ZM166.142 52.2858C165.506 52.2858 164.378 52.4704 163.701 52.7371C164.09 53.3526 165.342 54.8091 166.142 55.445C167.291 54.7681 167.804 53.6603 167.804 53.1064C167.804 52.5935 167.373 52.2858 166.142 52.2858ZM185.328 56.2451C185.759 56.2451 186.149 56.4708 186.149 57.1067V57.9683C186.149 58.8094 185.615 58.9325 185.328 58.9325C184.405 58.9325 183.379 58.7479 182.477 58.0093C181.718 58.6453 180.61 59.0351 179.112 59.0351C177.697 59.0351 176.486 58.6863 175.44 58.0709C174.702 58.7273 173.943 58.9325 172.609 58.9325H172.219V56.2451H172.527C173.43 56.2451 173.655 55.8348 174.086 54.5014C175.009 51.6704 176.794 49.9061 179.215 49.9061C182.046 49.9061 183.872 51.9576 183.872 54.6039C183.872 55.0758 183.831 55.5271 183.708 55.9579C184.364 56.1836 184.877 56.2451 185.328 56.2451ZM179.071 56.3066C180.097 56.3066 180.794 55.9579 180.794 54.686C180.794 53.5167 180.159 52.614 179.112 52.614C177.943 52.614 177.163 53.7423 176.569 55.5886C177.184 55.9374 178.087 56.3066 179.071 56.3066ZM185.321 58.9325V56.2451H187.619V43.4236H190.758V58.9325H185.321ZM193.71 58.9325V43.4236H196.849V58.9325H193.71ZM207.881 47.0341C206.998 47.0341 206.321 46.3572 206.321 45.475C206.321 44.5929 206.998 43.8954 207.881 43.8954C208.742 43.8954 209.46 44.5929 209.46 45.475C209.46 46.3366 208.742 47.0341 207.881 47.0341ZM211.676 47.0341C210.794 47.0341 210.117 46.3572 210.117 45.475C210.117 44.5929 210.711 43.8954 211.676 43.8954C212.558 43.8954 213.276 44.5929 213.276 45.475C213.276 46.3366 212.558 47.0341 211.676 47.0341ZM215.717 56.2451C216.107 56.2451 216.497 56.4708 216.497 57.1067V57.9683C216.497 58.8094 215.963 58.9325 215.717 58.9325H213.85C211.84 58.9325 211.04 58.276 210.691 57.5785C209.891 57.8657 209.05 57.9478 208.414 57.9478C205.87 57.9478 204.208 56.8195 204.208 54.686C204.208 51.7935 206.998 50.3575 210.506 49.5984V48.1009H213.625V54.8706C213.625 55.8553 214.035 56.2451 214.958 56.2451H215.717ZM207.306 54.2347C207.306 54.8911 207.86 55.2604 208.845 55.2604C209.46 55.2604 210.076 55.1373 210.506 54.9117V52.2243C208.045 52.7576 207.306 53.4757 207.306 54.2347ZM223.611 56.2451C224.042 56.2451 224.452 56.4708 224.452 57.1067V57.9683C224.452 58.8094 223.899 58.9325 223.611 58.9325C222.668 58.9325 221.621 58.7273 220.739 57.9683C220.226 58.6248 219.467 58.9325 218.442 58.9325H215.652V56.2451H217.149C218.052 56.2451 218.38 55.8553 218.38 54.9117V50.1113H221.498V55.0142C221.498 55.2809 221.498 55.5066 221.478 55.7527C222.36 56.163 223.037 56.2451 223.611 56.2451ZM218.031 60.6967C218.893 60.6967 219.611 61.4147 219.611 62.2763C219.611 63.1174 218.893 63.8354 218.031 63.8354C217.129 63.8354 216.472 63.1379 216.472 62.2763C216.472 61.4147 217.149 60.6967 218.031 60.6967ZM221.827 60.6967C222.709 60.6967 223.406 61.4147 223.406 62.2763C223.406 63.1174 222.709 63.8354 221.827 63.8354C220.944 63.8354 220.268 63.1379 220.268 62.2763C220.268 61.4147 220.965 60.6967 221.827 60.6967ZM227.584 48.3265C226.702 48.3265 226.025 47.6496 226.025 46.7674C226.025 45.8853 226.723 45.1878 227.584 45.1878C228.467 45.1878 229.164 45.8853 229.164 46.7674C229.164 47.6291 228.467 48.3265 227.584 48.3265ZM231.236 56.2451C231.667 56.2451 232.077 56.4708 232.077 57.1067V57.9683C232.077 58.8094 231.523 58.9325 231.236 58.9325C230.313 58.9325 229.287 58.7479 228.405 58.0093C227.933 58.5632 227.215 58.9325 226.107 58.9325H223.646V56.2451H224.836C225.697 56.2451 226.025 55.8553 226.025 54.9117V50.1113H229.164V55.0142C229.164 55.2604 229.164 55.5271 229.144 55.7733C230.005 56.163 230.662 56.2451 231.236 56.2451ZM235.649 47.8137C234.766 47.8137 234.089 47.1367 234.089 46.2546C234.089 45.3725 234.766 44.675 235.649 44.675C236.51 44.675 237.228 45.3725 237.228 46.2546C237.228 47.1162 236.51 47.8137 235.649 47.8137ZM239.444 47.8137C238.562 47.8137 237.885 47.1367 237.885 46.2546C237.885 45.3725 238.479 44.675 239.444 44.675C240.326 44.675 241.044 45.3725 241.044 46.2546C241.044 47.1162 240.326 47.8137 239.444 47.8137ZM244.039 56.2451C244.47 56.2451 244.859 56.4708 244.859 57.1067V57.9683C244.859 58.8094 244.326 58.9325 244.039 58.9325H242.808C240.777 58.9325 239.854 58.8299 238.767 58.6248C237.29 58.8709 234.766 58.9325 232.961 58.9325H231.258V56.2451H233.474C233.043 55.6091 232.776 54.7681 232.776 53.8859C232.776 51.4447 234.705 49.5984 237.782 49.5984C240.798 49.5984 242.398 51.5678 242.398 53.7423C242.398 54.5219 242.193 55.5066 241.905 56.2451H244.039ZM238.828 56.2451C239.033 55.7938 239.218 54.8911 239.218 54.1937C239.218 52.9628 238.603 52.2858 237.597 52.2858C236.551 52.2858 235.874 53.0038 235.874 53.968C235.874 55.3219 237.043 56.2451 238.233 56.2451H238.828ZM246.399 48.3265C245.517 48.3265 244.84 47.6496 244.84 46.7674C244.84 45.8853 245.517 45.1878 246.399 45.1878C247.261 45.1878 247.979 45.8853 247.979 46.7674C247.979 47.6291 247.261 48.3265 246.399 48.3265ZM250.194 48.3265C249.312 48.3265 248.635 47.6496 248.635 46.7674C248.635 45.8853 249.23 45.1878 250.194 45.1878C251.076 45.1878 251.794 45.8853 251.794 46.7674C251.794 47.6291 251.076 48.3265 250.194 48.3265ZM251.979 56.2451C252.41 56.2451 252.82 56.4708 252.82 57.1067V57.9683C252.82 58.8094 252.266 58.9325 251.979 58.9325C251.035 58.9325 249.989 58.7273 249.107 57.9683C248.594 58.6248 247.835 58.9325 246.809 58.9325H244.019V56.2451H245.517C246.42 56.2451 246.748 55.8553 246.748 54.9117V50.1113H249.866V55.0142C249.866 55.2809 249.866 55.5066 249.845 55.7527C250.728 56.163 251.405 56.2451 251.979 56.2451ZM252.013 58.9325V56.2451H254.311V43.4236H257.45V58.9325H252.013ZM269.2 47.1982C268.318 47.1982 267.641 46.5213 267.641 45.6392C267.641 44.757 268.339 44.0595 269.2 44.0595C270.082 44.0595 270.78 44.757 270.78 45.6392C270.78 46.5008 270.082 47.1982 269.2 47.1982ZM264.974 58.9325V56.2451H268.728C270.185 56.2451 270.616 55.7938 270.616 55.1373C270.616 54.3578 269.795 53.2705 267.395 50.9729L269.508 48.8599C273.077 52.2653 273.611 53.9475 273.611 55.3835C273.611 57.3324 272.277 58.9325 269.344 58.9325H264.974ZM291.146 56.2451C291.597 56.2451 292.007 56.4708 292.007 57.1067V57.9683C292.007 58.8094 291.453 58.9325 291.146 58.9325C290.223 58.9325 289.176 58.7479 288.294 58.0504C287.802 58.6248 287.002 58.9325 285.648 58.9325H275.432V56.2451H279.699V47.8957H282.817V56.2451H284.725C285.566 56.2451 285.894 55.8758 285.894 54.9732V43.4236H289.033V54.4398C289.033 54.9117 289.033 55.363 288.992 55.7733C289.894 56.163 290.571 56.2451 291.146 56.2451ZM298.154 49.9061C300.985 49.9061 302.811 51.9576 302.811 54.6039C302.811 57.0246 301.478 59.0351 298.052 59.0351C296.636 59.0351 295.426 58.6863 294.38 58.0709C293.641 58.7273 292.882 58.9325 291.549 58.9325H291.159V56.2451H291.467C292.369 56.2451 292.595 55.8348 293.026 54.5014C293.949 51.6704 295.734 49.9061 298.154 49.9061ZM298.011 56.3066C299.036 56.3066 299.734 55.9579 299.734 54.686C299.734 53.5167 299.098 52.614 298.052 52.614C296.882 52.614 296.103 53.7423 295.508 55.5886C296.123 55.9374 297.026 56.3066 298.011 56.3066Z" fill="black"/>
<path d="M100.748 35.7629V18.6274H107.229L109.365 25.4031C109.905 27.1461 110.494 29.3064 110.985 31.1967H111.034C111.549 29.3064 112.163 27.1461 112.728 25.4031L114.937 18.6274H121.173V35.7629H117.294V28.8891C117.294 26.7778 117.319 23.7828 117.368 21.4752H117.319C116.779 23.39 115.895 26.385 115.379 27.8334L112.605 35.7629H109.021L106.32 27.858C106.05 27.0724 104.798 23.0218 104.357 21.4752H104.307C104.357 23.7828 104.406 26.7778 104.406 28.8891V35.7629H100.748ZM128.135 36.0084C125.606 36.0084 123.74 34.4618 123.74 32.0314C123.74 29.2573 126.146 27.8334 130.369 27.8334C130.884 27.8334 131.572 27.858 132.185 27.9071C132.185 26.1395 131.203 25.4031 129.338 25.4031C127.987 25.4031 126.465 25.8449 125.312 26.4832L125.189 23.6846C126.514 23.0463 128.429 22.7517 129.951 22.7517C134.051 22.7517 135.794 24.6911 135.794 28.0298C135.794 28.84 135.745 30.1902 135.745 31.2213C135.745 33.5044 135.819 34.9528 135.917 35.7629H132.554C132.505 35.5665 132.48 35.1246 132.48 34.7564C132.48 34.4863 132.505 34.0935 132.529 33.6517H132.48C131.645 35.0755 130.197 36.0084 128.135 36.0084ZM129.338 33.4307C131.007 33.4307 132.234 32.3014 132.234 29.9938C131.94 29.9692 131.596 29.9447 131.228 29.9447C128.798 29.9447 127.447 30.4848 127.447 31.835C127.447 32.9152 128.184 33.4307 129.338 33.4307ZM138.864 35.7629V17.2036H142.743V35.7629H138.864ZM149.615 36.0084C147.087 36.0084 145.221 34.4618 145.221 32.0314C145.221 29.2573 147.627 27.8334 151.849 27.8334C152.365 27.8334 153.052 27.858 153.666 27.9071C153.666 26.1395 152.684 25.4031 150.818 25.4031C149.468 25.4031 147.946 25.8449 146.792 26.4832L146.67 23.6846C147.995 23.0463 149.91 22.7517 151.432 22.7517C155.532 22.7517 157.275 24.6911 157.275 28.0298C157.275 28.84 157.226 30.1902 157.226 31.2213C157.226 33.5044 157.299 34.9528 157.398 35.7629H154.034C153.985 35.5665 153.961 35.1246 153.961 34.7564C153.961 34.4863 153.985 34.0935 154.01 33.6517H153.961C153.126 35.0755 151.678 36.0084 149.615 36.0084ZM150.818 33.4307C152.488 33.4307 153.715 32.3014 153.715 29.9938C153.421 29.9692 153.077 29.9447 152.709 29.9447C150.278 29.9447 148.928 30.4848 148.928 31.835C148.928 32.9152 149.665 33.4307 150.818 33.4307ZM165.868 35.9347C162.726 35.9347 161.351 34.5109 161.351 31.2458V25.7958H158.921V23.0709H161.474V20.2968L165.107 19.0693V23.0709H168.152V25.7958H165.107V30.7548C165.107 32.0805 165.377 33.1116 166.949 33.1116C167.391 33.1116 167.857 33.0625 168.25 32.9397L168.348 35.6402C167.611 35.8365 166.679 35.9347 165.868 35.9347ZM170.485 35.7629V17.2036H174.29V22.2853C174.29 23.1691 174.266 24.2983 174.217 25.2067H174.266C175.199 23.7582 176.623 22.7517 178.439 22.7517C181.68 22.7517 183.226 24.8139 183.226 28.2753V35.7629H179.397V29.6992C179.397 27.3179 179.053 25.8449 177.187 25.8449C174.978 25.8449 174.315 27.8089 174.315 30.1656V35.7629H170.485ZM197.105 36.082C195.362 36.082 193.766 35.8365 192.244 35.3456L192.588 31.9577C194.134 32.6697 195.681 32.9643 196.884 32.9643C198.602 32.9643 199.781 32.3014 199.781 31.0494C199.781 29.9447 199.02 29.331 196.565 28.4226C193.692 27.367 192.121 25.9677 192.121 23.4637C192.121 20.174 194.895 18.3328 198.676 18.3328C200.296 18.3328 201.695 18.4801 203.07 18.922L202.8 22.0889C201.376 21.5488 200.198 21.3524 199.093 21.3524C197.399 21.3524 196.245 21.9661 196.245 23.0709C196.245 24.0283 196.81 24.5438 199.241 25.4522C202.358 26.5814 203.88 28.0298 203.88 30.6321C203.88 34.0199 201.278 36.082 197.105 36.082ZM212.754 36.082C208.556 36.082 205.733 33.4307 205.733 29.4537C205.733 25.3294 208.507 22.7517 212.828 22.7517C216.977 22.7517 219.775 25.3785 219.775 29.4537C219.775 33.4553 216.952 36.082 212.754 36.082ZM212.754 33.308C214.571 33.308 215.774 31.7859 215.774 29.4046C215.774 26.9742 214.596 25.4767 212.754 25.4767C210.962 25.4767 209.759 27.0233 209.759 29.4046C209.759 31.7614 210.962 33.308 212.754 33.308ZM222.318 35.7629V17.2036H226.196V35.7629H222.318ZM233.904 36.082C231.179 36.082 229.387 34.1426 229.387 31.2213V23.0709H233.216V29.8465C233.216 31.7859 233.756 32.9152 235.401 32.9152C237.095 32.9152 238.2 31.344 238.2 29.2573V23.0709H242.079V32.0068C242.079 33.3325 242.079 34.7073 242.201 35.7629H238.617C238.568 35.2474 238.519 34.4372 238.519 33.6026H238.47C237.586 35.0755 236.039 36.082 233.904 36.082ZM250.952 35.9347C247.81 35.9347 246.435 34.5109 246.435 31.2458V25.7958H244.005V23.0709H246.558V20.2968L250.191 19.0693V23.0709H253.235V25.7958H250.191V30.7548C250.191 32.0805 250.461 33.1116 252.032 33.1116C252.474 33.1116 252.941 33.0625 253.334 32.9397L253.432 35.6402C252.695 35.8365 251.762 35.9347 250.952 35.9347ZM255.594 20.9351V17.7191H259.472V20.9351H255.594ZM255.594 35.7629V23.0709H259.472V35.7629H255.594ZM269.045 36.082C264.847 36.082 262.024 33.4307 262.024 29.4537C262.024 25.3294 264.798 22.7517 269.119 22.7517C273.268 22.7517 276.066 25.3785 276.066 29.4537C276.066 33.4553 273.243 36.082 269.045 36.082ZM269.045 33.308C270.862 33.308 272.065 31.7859 272.065 29.4046C272.065 26.9742 270.887 25.4767 269.045 25.4767C267.253 25.4767 266.05 27.0233 266.05 29.4046C266.05 31.7614 267.253 33.308 269.045 33.308ZM278.56 35.7629V27.097C278.56 25.9431 278.535 24.5929 278.437 23.0709H282.07C282.119 23.611 282.168 24.5684 282.168 25.2312H282.217C283.15 23.7582 284.746 22.7517 286.563 22.7517C289.803 22.7517 291.301 24.8139 291.301 28.2508V35.7629H287.471V29.6992C287.471 27.2934 287.176 25.8449 285.311 25.8449C284.181 25.8449 283.371 26.4341 282.905 27.3179C282.537 28.0544 282.389 29.0609 282.389 30.1656V35.7629H278.56ZM298.112 36.0575C296.787 36.0575 295.24 35.8611 293.865 35.3947L294.062 32.4978C295.436 33.1361 296.811 33.4062 297.965 33.4062C298.996 33.4062 299.88 32.9888 299.88 32.2032C299.88 31.4668 299.487 31.1722 297.425 30.5584C294.847 29.8219 293.792 28.8645 293.792 26.8024C293.792 24.3229 295.829 22.7517 299.119 22.7517C300.616 22.7517 301.868 22.9481 302.924 23.39L302.629 26.1395C301.451 25.5995 300.42 25.354 299.34 25.354C298.235 25.354 297.498 25.7958 297.498 26.5569C297.498 27.2688 297.916 27.5389 299.831 28.0544C301.991 28.6436 303.66 29.4292 303.66 31.9086C303.66 34.5845 301.451 36.0575 298.112 36.0575Z" fill="black"/>
<path d="M71.3442 9.97694C70.9143 9.97694 70.5108 9.89775 70.1337 9.73936C69.7642 9.57344 69.4361 9.35095 69.1495 9.07189C68.8704 8.78529 68.6517 8.45721 68.4933 8.08765C68.335 7.71055 68.2558 7.30705 68.2558 6.87715C68.2558 6.44726 68.335 6.04753 68.4933 5.67797C68.6517 5.30086 68.8704 4.97278 69.1495 4.69373C69.4361 4.40713 69.7642 4.18464 70.1337 4.02626C70.5108 3.86787 70.9143 3.78868 71.3442 3.78868C71.7741 3.78868 72.1739 3.86787 72.5434 4.02626C72.913 4.18464 73.2373 4.40713 73.5163 4.69373C73.8029 4.97278 74.0254 5.30086 74.1838 5.67797C74.3422 6.04753 74.4214 6.44726 74.4214 6.87715C74.4214 7.30705 74.3422 7.71055 74.1838 8.08765C74.0254 8.45721 73.8029 8.78529 73.5163 9.07189C73.2373 9.35095 72.913 9.57344 72.5434 9.73936C72.1739 9.89775 71.7741 9.97694 71.3442 9.97694ZM71.3442 9.33209C71.8269 9.33209 72.2493 9.22273 72.6113 9.00401C72.9733 8.77775 73.2561 8.47984 73.4598 8.11028C73.671 7.73318 73.7765 7.32213 73.7765 6.87715C73.7765 6.43217 73.671 6.0249 73.4598 5.65534C73.2561 5.28578 72.9733 4.99164 72.6113 4.77292C72.2493 4.5542 71.8269 4.44484 71.3442 4.44484C70.8615 4.44484 70.4354 4.5542 70.0659 4.77292C69.7038 4.99164 69.4172 5.28578 69.2061 5.65534C69.0024 6.0249 68.9006 6.43217 68.9006 6.87715C68.9006 7.32213 69.0024 7.73318 69.2061 8.11028C69.4172 8.47984 69.7038 8.77775 70.0659 9.00401C70.4354 9.22273 70.8615 9.33209 71.3442 9.33209ZM70.1111 8.57412V5.20282H71.2311C71.6685 5.20282 72.0079 5.29332 72.2493 5.47433C72.4982 5.65534 72.6226 5.908 72.6226 6.23231C72.6226 6.46611 72.5585 6.66598 72.4303 6.8319C72.3021 6.99783 72.1211 7.11096 71.8873 7.17129L72.7584 8.57412H72.0456L71.265 7.25048H70.7446V8.57412H70.1111ZM70.7446 6.73008H71.3216C71.5403 6.73008 71.71 6.68483 71.8307 6.59433C71.9514 6.49628 72.0117 6.36806 72.0117 6.20968C72.0117 6.05884 71.9514 5.94194 71.8307 5.85897C71.71 5.77601 71.5403 5.73453 71.3216 5.73453H70.7446V6.73008Z" fill="black"/>
<path d="M67.0208 62.8556H57.1784C55.9811 62.8556 55.0855 61.762 55.3306 60.593L60.0726 37.4671C60.2518 36.5904 61.0248 35.9587 61.9204 35.9587H71.7628C72.9601 35.9587 73.8557 37.0523 73.6106 38.2214L68.8686 61.3472C68.6894 62.2239 67.9164 62.8556 67.0208 62.8556Z" fill="#320C97"/>
<path d="M65.5501 11.5225L60.808 34.4692C60.6289 35.3459 59.8558 35.9776 58.9602 35.9776H50.6545C48.4202 35.9776 46.4875 37.5426 46.035 39.7392L43.7818 50.7129C43.6027 51.5896 42.8296 52.2213 41.934 52.2213H32.0916C30.8943 52.2213 29.9987 51.1277 30.2438 49.9587L32.8175 37.486C32.9967 36.6092 33.7697 35.9776 34.6653 35.9776H42.971C45.2054 35.9776 47.138 34.4032 47.5905 32.216L52.0309 10.7683C52.21 9.8915 52.9831 9.26928 53.8787 9.26928H63.7211C64.9184 9.26928 65.814 10.3629 65.5689 11.5319L65.5501 11.5225Z" fill="#62CCF4"/>
<path d="M38.0875 11.513L33.3455 34.4597C33.1664 35.3365 32.3933 35.9682 31.4977 35.9682H23.192C20.9577 35.9682 19.025 37.5331 18.5725 39.7298L14.0944 61.5357C13.9153 62.4125 13.1422 63.0441 12.2466 63.0441H2.38534C1.18804 63.0441 0.292418 61.9505 0.537535 60.7815L5.35502 37.4671C5.53415 36.5904 6.30721 35.9587 7.20283 35.9587H15.5085C17.7428 35.9587 19.6755 34.3843 20.128 32.1971L24.5684 10.7494C24.7475 9.87265 25.5206 9.25043 26.4162 9.25043H36.2586C37.4559 9.25043 38.3515 10.344 38.1064 11.513H38.0875Z" fill="#320C97"/>
</g>
<defs>
<clipPath id="clip0_175_970">
<rect width="322.35" height="63.42" fill="white" transform="translate(0.5)"/>
</clipPath>
</defs>
</svg>
