<svg width="16" height="15" viewBox="0 0 16 15" fill="none" xmlns="http://www.w3.org/2000/svg">
<path d="M15.5001 10.9375C15.6251 11.25 15.5626 11.625 15.2813 11.9375C15.1563 12.0625 15.0001 12.1875 14.8751 12.25C14.5626 12.4375 14.2188 12.5625 13.9063 12.625C13.8438 12.6562 13.7813 12.6875 13.7188 12.7188C13.6251 12.8125 13.6251 12.9375 13.5001 13.125C13.4376 13.25 13.3126 13.375 13.1876 13.4688C12.8751 13.6875 12.5313 13.6875 12.1563 13.7188C11.8126 13.7188 11.4376 13.75 11.0001 13.875C10.8126 13.9375 10.6251 14.0625 10.4376 14.1875C9.90631 14.5 9.18756 14.9375 7.96881 14.9375C6.78131 14.9375 6.06256 14.5 5.56256 14.1875C5.34381 14.0625 5.15631 13.9375 4.96881 13.875C4.53131 13.75 4.15631 13.7188 3.81256 13.7188C3.43756 13.6875 3.09381 13.6875 2.78131 13.4688C2.65631 13.4062 2.56256 13.2812 2.50006 13.1875C2.34381 12.9688 2.37506 12.8125 2.25006 12.7188C2.18756 12.6875 2.12506 12.6562 2.06256 12.625C1.71881 12.5625 1.40631 12.4062 1.09381 12.25C0.968806 12.1875 0.843806 12.0938 0.718806 11.9688C0.406306 11.6562 0.343806 11.2812 0.468806 10.9375C0.625056 10.5 1.00006 10.375 1.37506 10.1875C2.06256 9.8125 2.59381 9.34375 2.96881 8.78125C3.06256 8.625 3.15631 8.46875 3.25006 8.28125C3.28131 8.1875 3.28131 8.15625 3.25006 8.09375C3.21881 8.0625 3.18756 8 3.15631 8C3.03131 7.90625 2.90631 7.84375 2.84381 7.78125C2.68756 7.6875 2.56256 7.59375 2.46881 7.53125C2.18756 7.34375 2.00006 7.125 1.84381 6.875C1.68756 6.53125 1.65631 6.125 1.78131 5.78125C2.00006 5.28125 2.46881 4.9375 3.06256 4.9375C3.18756 4.9375 3.31256 4.96875 3.40631 5C3.43756 5 3.46881 5 3.50006 5C3.50006 4.65625 3.53131 4.28125 3.56256 3.9375C3.65631 2.65625 4.09381 2 4.56256 1.46875C4.87506 1.125 5.21881 0.84375 5.62506 0.625C6.31256 0.21875 7.12506 0 8.00006 0C8.84381 0 9.65631 0.21875 10.3751 0.625C10.7501 0.84375 11.0938 1.125 11.4063 1.46875C11.8751 2 12.3126 2.65625 12.4063 3.9375C12.4376 4.28125 12.4688 4.65625 12.4688 5C12.5001 5 12.5313 5 12.5626 5C12.6563 4.96875 12.7813 4.9375 12.9063 4.9375C13.5001 4.9375 13.9688 5.28125 14.1876 5.78125C14.3126 6.125 14.2813 6.53125 14.1251 6.875C13.9688 7.125 13.7813 7.34375 13.5001 7.53125C13.4063 7.59375 13.2813 7.6875 13.1251 7.78125C13.0626 7.84375 12.9063 7.90625 12.8126 8C12.7501 8.03125 12.7188 8.0625 12.7188 8.09375C12.6876 8.125 12.6876 8.1875 12.7188 8.28125C12.7813 8.46875 12.8751 8.625 13.0001 8.78125C13.3751 9.34375 13.9376 9.84375 14.6563 10.2188C14.7188 10.25 14.7813 10.2812 14.8751 10.3125C14.9063 10.3125 14.9376 10.3438 14.9688 10.375C15.2188 10.5 15.4063 10.6562 15.5001 10.9375ZM14.4376 11.5C14.8751 11.2812 14.6251 11.1562 14.5001 11.0625C12.1563 9.9375 11.7813 8.1875 11.7501 8.0625C11.7188 7.90625 11.7188 7.78125 11.8751 7.59375C12.0626 7.4375 12.7813 7 13.0001 6.84375C13.3438 6.59375 13.5001 6.375 13.3751 6.0625C13.3126 5.875 13.1251 5.8125 12.9063 5.8125C12.8438 5.8125 12.7813 5.8125 12.7188 5.8125C12.3438 5.90625 12.0001 6.09375 11.7813 6.125C11.7501 6.15625 11.7188 6.15625 11.6876 6.15625C11.5938 6.15625 11.5626 6.09375 11.5626 5.96875C11.5938 5.5625 11.6251 4.75 11.5626 4C11.5001 2.96875 11.1563 2.46875 10.7501 2.03125C10.5626 1.8125 9.68756 0.875 7.96881 0.875C6.28131 0.875 5.40631 1.8125 5.21881 2.03125C4.81256 2.46875 4.46881 2.96875 4.40631 4C4.31256 4.75 4.37506 5.5625 4.40631 5.96875C4.40631 6.09375 4.37506 6.15625 4.25006 6.15625C4.25006 6.15625 4.21881 6.15625 4.18756 6.15625C3.96881 6.09375 3.62506 5.90625 3.25006 5.8125C3.18756 5.8125 3.12506 5.8125 3.06256 5.8125C2.84381 5.8125 2.65631 5.875 2.59381 6.09375C2.46881 6.375 2.62506 6.625 2.96881 6.84375C3.18756 7 3.90631 7.46875 4.09381 7.625C4.25006 7.78125 4.25006 7.90625 4.21881 8.0625C4.18756 8.1875 3.81256 9.9375 1.46881 11.0625C1.34381 11.1562 1.09381 11.2812 1.53131 11.5C2.15631 11.875 2.59381 11.8438 2.93756 12.0312C3.21881 12.2188 3.06256 12.625 3.25006 12.7812C3.50006 12.9375 4.25006 12.75 5.21881 13.0625C6.03131 13.3438 6.53131 14.0938 8.00006 14.0938C9.43756 14.0938 9.93756 13.3438 10.7501 13.0625C11.7188 12.75 12.4688 12.9375 12.7188 12.7812C12.9063 12.625 12.7501 12.2188 13.0313 12.0625C13.3751 11.8438 13.8126 11.875 14.4376 11.5Z" fill="black"/>
</svg>
