<svg width="15" height="17" viewBox="0 0 15 17" fill="none" xmlns="http://www.w3.org/2000/svg">
<path d="M14.9999 6.5625C13.5937 6.59375 12.2812 6.15625 11.1562 5.34375V10.9375C11.1562 13.0625 9.84369 14.9375 7.84369 15.6875C5.87494 16.4375 3.62494 15.875 2.24994 14.2812C0.843688 12.6562 0.593688 10.375 1.59369 8.5C2.59369 6.65625 4.65619 5.625 6.78119 5.90625V8.71875C5.81244 8.40625 4.74994 8.75 4.15619 9.5625C3.59369 10.4062 3.59369 11.5 4.18744 12.3125C4.78119 13.125 5.84369 13.4688 6.78119 13.1562C7.74994 12.8438 8.40619 11.9375 8.40619 10.9375V0H11.1562C11.1562 0.25 11.1562 0.46875 11.2187 0.71875C11.4062 1.75 11.9999 2.65625 12.9062 3.21875C13.4999 3.625 14.2499 3.84375 14.9999 3.84375V6.5625Z" fill="black"/>
</svg>
